M48
;DRILL file {KiCad 4.0.7} date 
;FORMAT={3:3/ absolute / metric / suppress leading zeros}
FMAT,2
METRIC,TZ
T1C0.400
T2C1.000
%
G90
G05
M71
T1
X128340Y-98161
X129121Y-98630
X131670Y-101619
X131674Y-102842
X131676Y-110313
X131690Y-106593
X131699Y-105218
X137760Y-114065
X140533Y-120501
X140786Y-119620
X141412Y-118874
X142448Y-107275
X142650Y-104066
X142657Y-102866
X143910Y-110931
X144065Y-117078
X144748Y-112151
X145184Y-99429
T2
X127000Y-91440
X127000Y-93980
X127000Y-96520
X127000Y-99060
X127000Y-101600
X127000Y-104140
X127000Y-106680
X127000Y-109220
X127000Y-111760
X127000Y-114300
X127000Y-116840
X127000Y-119380
X127000Y-121920
X127000Y-124460
X127000Y-127000
X127000Y-129540
X127000Y-132080
X127000Y-134620
X127000Y-137160
X127000Y-139700
X147320Y-91440
X147320Y-93980
X147320Y-96520
X147320Y-99060
X147320Y-101600
X147320Y-104140
X147320Y-106680
X147320Y-109220
X147320Y-111760
X147320Y-114300
X147320Y-116840
X147320Y-119380
X147320Y-121920
X147320Y-124460
X147320Y-127000
X147320Y-129540
X147320Y-132080
X147320Y-134620
X147320Y-137160
X147320Y-139700
T0
M30
