G04 #@! TF.FileFunction,Legend,Top*
%FSLAX46Y46*%
G04 Gerber Fmt 4.6, Leading zero omitted, Abs format (unit mm)*
G04 Created by KiCad (PCBNEW 4.0.7) date *
%MOMM*%
%LPD*%
G01*
G04 APERTURE LIST*
%ADD10C,0.100000*%
%ADD11C,0.200000*%
%ADD12C,0.127000*%
%ADD13C,0.120000*%
%ADD14C,0.150000*%
G04 APERTURE END LIST*
D10*
D11*
X134755238Y-139302381D02*
X134755238Y-138302381D01*
X135136191Y-138302381D01*
X135231429Y-138350000D01*
X135279048Y-138397619D01*
X135326667Y-138492857D01*
X135326667Y-138635714D01*
X135279048Y-138730952D01*
X135231429Y-138778571D01*
X135136191Y-138826190D01*
X134755238Y-138826190D01*
X135755238Y-139302381D02*
X135755238Y-138635714D01*
X135755238Y-138826190D02*
X135802857Y-138730952D01*
X135850476Y-138683333D01*
X135945714Y-138635714D01*
X136040953Y-138635714D01*
X136517143Y-139302381D02*
X136421905Y-139254762D01*
X136374286Y-139207143D01*
X136326667Y-139111905D01*
X136326667Y-138826190D01*
X136374286Y-138730952D01*
X136421905Y-138683333D01*
X136517143Y-138635714D01*
X136660001Y-138635714D01*
X136755239Y-138683333D01*
X136802858Y-138730952D01*
X136850477Y-138826190D01*
X136850477Y-139111905D01*
X136802858Y-139207143D01*
X136755239Y-139254762D01*
X136660001Y-139302381D01*
X136517143Y-139302381D01*
X137279048Y-138635714D02*
X137279048Y-139492857D01*
X137231429Y-139588095D01*
X137136191Y-139635714D01*
X137088572Y-139635714D01*
X137279048Y-138302381D02*
X137231429Y-138350000D01*
X137279048Y-138397619D01*
X137326667Y-138350000D01*
X137279048Y-138302381D01*
X137279048Y-138397619D01*
X138136191Y-139254762D02*
X138040953Y-139302381D01*
X137850476Y-139302381D01*
X137755238Y-139254762D01*
X137707619Y-139159524D01*
X137707619Y-138778571D01*
X137755238Y-138683333D01*
X137850476Y-138635714D01*
X138040953Y-138635714D01*
X138136191Y-138683333D01*
X138183810Y-138778571D01*
X138183810Y-138873810D01*
X137707619Y-138969048D01*
X139040953Y-139254762D02*
X138945715Y-139302381D01*
X138755238Y-139302381D01*
X138660000Y-139254762D01*
X138612381Y-139207143D01*
X138564762Y-139111905D01*
X138564762Y-138826190D01*
X138612381Y-138730952D01*
X138660000Y-138683333D01*
X138755238Y-138635714D01*
X138945715Y-138635714D01*
X139040953Y-138683333D01*
X139326667Y-138635714D02*
X139707619Y-138635714D01*
X139469524Y-138302381D02*
X139469524Y-139159524D01*
X139517143Y-139254762D01*
X139612381Y-139302381D01*
X139707619Y-139302381D01*
X133921904Y-141002381D02*
X133921904Y-140002381D01*
X133921904Y-140478571D02*
X134493333Y-140478571D01*
X134493333Y-141002381D02*
X134493333Y-140002381D01*
X135350476Y-140954762D02*
X135255238Y-141002381D01*
X135064761Y-141002381D01*
X134969523Y-140954762D01*
X134921904Y-140859524D01*
X134921904Y-140478571D01*
X134969523Y-140383333D01*
X135064761Y-140335714D01*
X135255238Y-140335714D01*
X135350476Y-140383333D01*
X135398095Y-140478571D01*
X135398095Y-140573810D01*
X134921904Y-140669048D01*
X135779047Y-140716667D02*
X136255238Y-140716667D01*
X135683809Y-141002381D02*
X136017142Y-140002381D01*
X136350476Y-141002381D01*
X137255238Y-141002381D02*
X136921904Y-140526190D01*
X136683809Y-141002381D02*
X136683809Y-140002381D01*
X137064762Y-140002381D01*
X137160000Y-140050000D01*
X137207619Y-140097619D01*
X137255238Y-140192857D01*
X137255238Y-140335714D01*
X137207619Y-140430952D01*
X137160000Y-140478571D01*
X137064762Y-140526190D01*
X136683809Y-140526190D01*
X138112381Y-141002381D02*
X138112381Y-140478571D01*
X138064762Y-140383333D01*
X137969524Y-140335714D01*
X137779047Y-140335714D01*
X137683809Y-140383333D01*
X138112381Y-140954762D02*
X138017143Y-141002381D01*
X137779047Y-141002381D01*
X137683809Y-140954762D01*
X137636190Y-140859524D01*
X137636190Y-140764286D01*
X137683809Y-140669048D01*
X137779047Y-140621429D01*
X138017143Y-140621429D01*
X138112381Y-140573810D01*
X138588571Y-141002381D02*
X138588571Y-140002381D01*
X138588571Y-140383333D02*
X138683809Y-140335714D01*
X138874286Y-140335714D01*
X138969524Y-140383333D01*
X139017143Y-140430952D01*
X139064762Y-140526190D01*
X139064762Y-140811905D01*
X139017143Y-140907143D01*
X138969524Y-140954762D01*
X138874286Y-141002381D01*
X138683809Y-141002381D01*
X138588571Y-140954762D01*
X139636190Y-141002381D02*
X139540952Y-140954762D01*
X139493333Y-140859524D01*
X139493333Y-140002381D01*
X140398096Y-140954762D02*
X140302858Y-141002381D01*
X140112381Y-141002381D01*
X140017143Y-140954762D01*
X139969524Y-140859524D01*
X139969524Y-140478571D01*
X140017143Y-140383333D01*
X140112381Y-140335714D01*
X140302858Y-140335714D01*
X140398096Y-140383333D01*
X140445715Y-140478571D01*
X140445715Y-140573810D01*
X139969524Y-140669048D01*
D12*
X143560000Y-112060000D02*
X143960000Y-112060000D01*
X143960000Y-112060000D02*
X143960000Y-110560000D01*
X130760000Y-112060000D02*
X130360000Y-112060000D01*
X130360000Y-112060000D02*
X130360000Y-110560000D01*
X131260000Y-90660000D02*
X143060000Y-90660000D01*
D13*
X138110000Y-121360000D02*
X136210000Y-121360000D01*
X136210000Y-121360000D02*
X136210000Y-126060000D01*
X138110000Y-121360000D02*
X138110000Y-126060000D01*
X143190000Y-121360000D02*
X141290000Y-121360000D01*
X141290000Y-121360000D02*
X141290000Y-126060000D01*
X143190000Y-121360000D02*
X143190000Y-126060000D01*
X135690000Y-123460000D02*
X135690000Y-125460000D01*
X133550000Y-125460000D02*
X133550000Y-123460000D01*
X140770000Y-123460000D02*
X140770000Y-125460000D01*
X138630000Y-125460000D02*
X138630000Y-123460000D01*
X125670000Y-141030000D02*
X128330000Y-141030000D01*
X125670000Y-92710000D02*
X125670000Y-141030000D01*
X128330000Y-92710000D02*
X128330000Y-141030000D01*
X125670000Y-92710000D02*
X128330000Y-92710000D01*
X125670000Y-91440000D02*
X125670000Y-90110000D01*
X125670000Y-90110000D02*
X127000000Y-90110000D01*
X148650000Y-90110000D02*
X145990000Y-90110000D01*
X148650000Y-138430000D02*
X148650000Y-90110000D01*
X145990000Y-138430000D02*
X145990000Y-90110000D01*
X148650000Y-138430000D02*
X145990000Y-138430000D01*
X148650000Y-139700000D02*
X148650000Y-141030000D01*
X148650000Y-141030000D02*
X147320000Y-141030000D01*
D14*
X134806571Y-114589652D02*
X134631255Y-114284755D01*
X134440694Y-114589652D02*
X134520730Y-113949367D01*
X134764648Y-113949367D01*
X134821816Y-113979857D01*
X134848494Y-114010347D01*
X134871362Y-114071326D01*
X134859928Y-114162796D01*
X134821816Y-114223775D01*
X134787515Y-114254265D01*
X134722724Y-114284755D01*
X134478806Y-114284755D01*
X135080979Y-114589652D02*
X135161015Y-113949367D01*
X135446856Y-114589652D01*
X135526892Y-113949367D01*
X136136687Y-113949367D02*
X135831790Y-113949367D01*
X135763188Y-114254265D01*
X135797489Y-114223775D01*
X135862279Y-114193285D01*
X136014728Y-114193285D01*
X136071897Y-114223775D01*
X136098575Y-114254265D01*
X136121442Y-114315244D01*
X136102386Y-114467693D01*
X136064274Y-114528673D01*
X136029974Y-114559162D01*
X135965182Y-114589652D01*
X135812733Y-114589652D01*
X135755566Y-114559162D01*
X135728887Y-114528673D01*
X136403472Y-114010347D02*
X136437774Y-113979857D01*
X136502564Y-113949367D01*
X136655013Y-113949367D01*
X136712182Y-113979857D01*
X136738859Y-114010347D01*
X136761727Y-114071326D01*
X136754105Y-114132306D01*
X136712181Y-114223775D01*
X136300569Y-114589652D01*
X136696936Y-114589652D01*
X137001834Y-114345734D02*
X137489670Y-114345734D01*
X137764078Y-114589652D02*
X137844114Y-113949367D01*
X138610169Y-113918877D02*
X137958451Y-114742101D01*
X139105628Y-114589652D02*
X138930312Y-114284755D01*
X138739751Y-114589652D02*
X138819787Y-113949367D01*
X139063705Y-113949367D01*
X139120873Y-113979857D01*
X139147551Y-114010347D01*
X139170419Y-114071326D01*
X139158985Y-114162796D01*
X139120873Y-114223775D01*
X139086572Y-114254265D01*
X139021781Y-114284755D01*
X138777863Y-114284755D01*
X139380036Y-114589652D02*
X139460072Y-113949367D01*
X139616332Y-114406714D01*
X139886928Y-113949367D01*
X139806892Y-114589652D01*
X137449652Y-130256509D02*
X137449652Y-130561406D01*
X136809367Y-130561406D01*
X137114265Y-130043080D02*
X137114265Y-129829652D01*
X137449652Y-129738183D02*
X137449652Y-130043080D01*
X136809367Y-130043080D01*
X136809367Y-129738183D01*
X137449652Y-129463775D02*
X136809367Y-129463775D01*
X136809367Y-129311326D01*
X136839857Y-129219857D01*
X136900837Y-129158878D01*
X136961816Y-129128388D01*
X137083775Y-129097898D01*
X137175244Y-129097898D01*
X137297203Y-129128388D01*
X137358183Y-129158878D01*
X137419162Y-129219857D01*
X137449652Y-129311326D01*
X137449652Y-129463775D01*
X136809367Y-128701531D02*
X136809367Y-128640552D01*
X136839857Y-128579572D01*
X136870347Y-128549082D01*
X136931326Y-128518593D01*
X137053285Y-128488103D01*
X137205734Y-128488103D01*
X137327693Y-128518593D01*
X137388673Y-128549082D01*
X137419162Y-128579572D01*
X137449652Y-128640552D01*
X137449652Y-128701531D01*
X137419162Y-128762511D01*
X137388673Y-128793000D01*
X137327693Y-128823490D01*
X137205734Y-128853980D01*
X137053285Y-128853980D01*
X136931326Y-128823490D01*
X136870347Y-128793000D01*
X136839857Y-128762511D01*
X136809367Y-128701531D01*
X142529652Y-130256509D02*
X142529652Y-130561406D01*
X141889367Y-130561406D01*
X142194265Y-130043080D02*
X142194265Y-129829652D01*
X142529652Y-129738183D02*
X142529652Y-130043080D01*
X141889367Y-130043080D01*
X141889367Y-129738183D01*
X142529652Y-129463775D02*
X141889367Y-129463775D01*
X141889367Y-129311326D01*
X141919857Y-129219857D01*
X141980837Y-129158878D01*
X142041816Y-129128388D01*
X142163775Y-129097898D01*
X142255244Y-129097898D01*
X142377203Y-129128388D01*
X142438183Y-129158878D01*
X142499162Y-129219857D01*
X142529652Y-129311326D01*
X142529652Y-129463775D01*
X142529652Y-128488103D02*
X142529652Y-128853980D01*
X142529652Y-128671041D02*
X141889367Y-128671041D01*
X141980837Y-128732021D01*
X142041816Y-128793000D01*
X142072306Y-128853980D01*
M02*
