G04 #@! TF.FileFunction,Copper,L1,Top,Signal*
%FSLAX46Y46*%
G04 Gerber Fmt 4.6, Leading zero omitted, Abs format (unit mm)*
G04 Created by KiCad (PCBNEW 4.0.7) date *
%MOMM*%
%LPD*%
G01*
G04 APERTURE LIST*
%ADD10C,0.100000*%
%ADD11R,1.600000X0.800000*%
%ADD12R,0.800000X1.600000*%
%ADD13R,0.800000X1.000000*%
%ADD14R,1.700000X2.000000*%
%ADD15R,1.700000X1.700000*%
%ADD16O,1.700000X1.700000*%
%ADD17C,0.600000*%
%ADD18C,0.304800*%
%ADD19C,0.254000*%
G04 APERTURE END LIST*
D10*
D11*
X130410000Y-90860000D03*
X130410000Y-92060000D03*
X130410000Y-93260000D03*
X130410000Y-94460000D03*
X130410000Y-95660000D03*
X130410000Y-96860000D03*
X130410000Y-98060000D03*
X130410000Y-99260000D03*
X130410000Y-100460000D03*
X130410000Y-101660000D03*
X130410000Y-102860000D03*
X130410000Y-104060000D03*
X130410000Y-105260000D03*
X130410000Y-106460000D03*
X130410000Y-107660000D03*
X130410000Y-108860000D03*
X130410000Y-110060000D03*
D12*
X131260000Y-112060000D03*
X132960000Y-112060000D03*
X134160000Y-112060000D03*
X135360000Y-112060000D03*
X136560000Y-112060000D03*
X137760000Y-112060000D03*
X138960000Y-112060000D03*
X140160000Y-112060000D03*
X141360000Y-112060000D03*
X143060000Y-112060000D03*
D11*
X143910000Y-110060000D03*
X143910000Y-108860000D03*
X143910000Y-107660000D03*
X143910000Y-106460000D03*
X143910000Y-105260000D03*
X143910000Y-104060000D03*
X143910000Y-102860000D03*
X143910000Y-101660000D03*
X143910000Y-100460000D03*
X143910000Y-99260000D03*
X143910000Y-98060000D03*
X143910000Y-96860000D03*
X143910000Y-95660000D03*
X143910000Y-94460000D03*
X143910000Y-93260000D03*
X143910000Y-92060000D03*
X143910000Y-90860000D03*
D13*
X140660000Y-91360000D03*
X139260000Y-91360000D03*
X137860000Y-91360000D03*
X136460000Y-91360000D03*
X135060000Y-91360000D03*
X133660000Y-91360000D03*
D14*
X137160000Y-122460000D03*
X137160000Y-126460000D03*
X142240000Y-122460000D03*
X142240000Y-126460000D03*
X134620000Y-126460000D03*
X134620000Y-122460000D03*
X139700000Y-126460000D03*
X139700000Y-122460000D03*
D15*
X127000000Y-91440000D03*
D16*
X127000000Y-93980000D03*
X127000000Y-96520000D03*
X127000000Y-99060000D03*
X127000000Y-101600000D03*
X127000000Y-104140000D03*
X127000000Y-106680000D03*
X127000000Y-109220000D03*
X127000000Y-111760000D03*
X127000000Y-114300000D03*
X127000000Y-116840000D03*
X127000000Y-119380000D03*
X127000000Y-121920000D03*
X127000000Y-124460000D03*
X127000000Y-127000000D03*
X127000000Y-129540000D03*
X127000000Y-132080000D03*
X127000000Y-134620000D03*
X127000000Y-137160000D03*
X127000000Y-139700000D03*
D15*
X147320000Y-139700000D03*
D16*
X147320000Y-137160000D03*
X147320000Y-134620000D03*
X147320000Y-132080000D03*
X147320000Y-129540000D03*
X147320000Y-127000000D03*
X147320000Y-124460000D03*
X147320000Y-121920000D03*
X147320000Y-119380000D03*
X147320000Y-116840000D03*
X147320000Y-114300000D03*
X147320000Y-111760000D03*
X147320000Y-109220000D03*
X147320000Y-106680000D03*
X147320000Y-104140000D03*
X147320000Y-101600000D03*
X147320000Y-99060000D03*
X147320000Y-96520000D03*
X147320000Y-93980000D03*
X147320000Y-91440000D03*
D17*
X144065200Y-117078000D03*
X128340300Y-98160500D03*
X129121300Y-98629800D03*
X131670200Y-101618700D03*
X131674400Y-102842100D03*
X131699400Y-105218100D03*
X131689800Y-106593200D03*
X131675800Y-110313400D03*
X137760000Y-114065000D03*
X140532600Y-120500500D03*
X140785900Y-119620000D03*
X141412000Y-118874000D03*
X143910000Y-110931400D03*
X144748200Y-112150800D03*
X142447500Y-107275400D03*
X142650100Y-104065700D03*
X142656600Y-102865700D03*
X145184100Y-99429000D03*
D18*
X136460000Y-91360000D02*
X137860000Y-91360000D01*
X137860000Y-91360000D02*
X139260000Y-91360000D01*
X139260000Y-91360000D02*
X140660000Y-91360000D01*
X140660000Y-91360000D02*
X141365100Y-91360000D01*
X143910000Y-90860000D02*
X142804900Y-90860000D01*
X143910000Y-96860000D02*
X142804900Y-96860000D01*
X141365100Y-91360000D02*
X142804800Y-91360000D01*
X142804900Y-91359900D02*
X142804900Y-90860000D01*
X142804800Y-91360000D02*
X142804900Y-91359900D01*
X132454900Y-90860000D02*
X130410000Y-90860000D01*
X132954900Y-91360000D02*
X132454900Y-90860000D01*
X133660000Y-91360000D02*
X132954900Y-91360000D01*
X136460000Y-91360000D02*
X135060000Y-91360000D01*
X135060000Y-91360000D02*
X133660000Y-91360000D01*
X131260000Y-112060000D02*
X131260000Y-110954900D01*
X142804800Y-96859900D02*
X142804900Y-96860000D01*
X142804800Y-91360000D02*
X142804800Y-96859900D01*
X141829000Y-97835900D02*
X141829000Y-110143200D01*
X142804900Y-96860000D02*
X141829000Y-97835900D01*
X141017300Y-110954900D02*
X131260000Y-110954900D01*
X141829000Y-110143200D02*
X141017300Y-110954900D01*
X142640700Y-110954900D02*
X143060000Y-110954900D01*
X141829000Y-110143200D02*
X142640700Y-110954900D01*
X143060000Y-112060000D02*
X143060000Y-110954900D01*
X143060000Y-112060000D02*
X143060000Y-113165100D01*
X144065200Y-114170300D02*
X144065200Y-117078000D01*
X143060000Y-113165100D02*
X144065200Y-114170300D01*
X128775100Y-92060000D02*
X130410000Y-92060000D01*
X128155100Y-91440000D02*
X128775100Y-92060000D01*
X127000000Y-91440000D02*
X128155100Y-91440000D01*
X128875100Y-93260000D02*
X130410000Y-93260000D01*
X128155100Y-93980000D02*
X128875100Y-93260000D01*
X127000000Y-93980000D02*
X128155100Y-93980000D01*
X128155100Y-95609800D02*
X129304900Y-94460000D01*
X128155100Y-96520000D02*
X128155100Y-95609800D01*
X127000000Y-96520000D02*
X128155100Y-96520000D01*
X130410000Y-94460000D02*
X129304900Y-94460000D01*
X129304900Y-96061300D02*
X129304900Y-95660000D01*
X127461300Y-97904900D02*
X129304900Y-96061300D01*
X127000000Y-97904900D02*
X127461300Y-97904900D01*
X127000000Y-99060000D02*
X127000000Y-97904900D01*
X130410000Y-95660000D02*
X129304900Y-95660000D01*
X129304900Y-97195900D02*
X129304900Y-96860000D01*
X128340300Y-98160500D02*
X129304900Y-97195900D01*
X130410000Y-96860000D02*
X129304900Y-96860000D01*
X130410000Y-98060000D02*
X129304900Y-98060000D01*
X129304900Y-98446200D02*
X129121300Y-98629800D01*
X129304900Y-98060000D02*
X129304900Y-98446200D01*
X128173200Y-100391700D02*
X129304900Y-99260000D01*
X126568300Y-100391700D02*
X128173200Y-100391700D01*
X125819300Y-101140700D02*
X126568300Y-100391700D01*
X125819300Y-104633000D02*
X125819300Y-101140700D01*
X126711200Y-105524900D02*
X125819300Y-104633000D01*
X127000000Y-105524900D02*
X126711200Y-105524900D01*
X127000000Y-106680000D02*
X127000000Y-105524900D01*
X130410000Y-99260000D02*
X129304900Y-99260000D01*
X128155100Y-101609800D02*
X129304900Y-100460000D01*
X128155100Y-107198700D02*
X128155100Y-101609800D01*
X127288900Y-108064900D02*
X128155100Y-107198700D01*
X127000000Y-108064900D02*
X127288900Y-108064900D01*
X127000000Y-109220000D02*
X127000000Y-108064900D01*
X130410000Y-100460000D02*
X129304900Y-100460000D01*
X130410000Y-101660000D02*
X131515100Y-101660000D01*
X131556400Y-101618700D02*
X131670200Y-101618700D01*
X131515100Y-101660000D02*
X131556400Y-101618700D01*
X130410000Y-102860000D02*
X131515100Y-102860000D01*
X131533000Y-102842100D02*
X131515100Y-102860000D01*
X131674400Y-102842100D02*
X131533000Y-102842100D01*
X129304900Y-107155000D02*
X129304900Y-104060000D01*
X128155100Y-108304800D02*
X129304900Y-107155000D01*
X128155100Y-114818700D02*
X128155100Y-108304800D01*
X127288900Y-115684900D02*
X128155100Y-114818700D01*
X127000000Y-115684900D02*
X127288900Y-115684900D01*
X127000000Y-116840000D02*
X127000000Y-115684900D01*
X130410000Y-104060000D02*
X129304900Y-104060000D01*
X130410000Y-105260000D02*
X131515100Y-105260000D01*
X131557000Y-105218100D02*
X131699400Y-105218100D01*
X131515100Y-105260000D02*
X131557000Y-105218100D01*
X131556600Y-106460000D02*
X130410000Y-106460000D01*
X131689800Y-106593200D02*
X131556600Y-106460000D01*
X130410000Y-107660000D02*
X131515100Y-107660000D01*
X131675800Y-107820700D02*
X131675800Y-110313400D01*
X131515100Y-107660000D02*
X131675800Y-107820700D01*
X128612700Y-109552200D02*
X129304900Y-108860000D01*
X128612700Y-124521000D02*
X128612700Y-109552200D01*
X127288800Y-125844900D02*
X128612700Y-124521000D01*
X127000000Y-125844900D02*
X127288800Y-125844900D01*
X127000000Y-127000000D02*
X127000000Y-125844900D01*
X130410000Y-108860000D02*
X129304900Y-108860000D01*
X127000000Y-129540000D02*
X127000000Y-128384900D01*
X130410000Y-110060000D02*
X129304900Y-110060000D01*
X129111100Y-110253800D02*
X129304900Y-110060000D01*
X129111100Y-126522500D02*
X129111100Y-110253800D01*
X127248700Y-128384900D02*
X129111100Y-126522500D01*
X127000000Y-128384900D02*
X127248700Y-128384900D01*
X127269200Y-130924900D02*
X127000000Y-130924900D01*
X129756400Y-128437700D02*
X127269200Y-130924900D01*
X129756400Y-116368700D02*
X129756400Y-128437700D01*
X132960000Y-113165100D02*
X129756400Y-116368700D01*
X132960000Y-112060000D02*
X132960000Y-113165100D01*
X127000000Y-132080000D02*
X127000000Y-130924900D01*
X134160000Y-113641600D02*
X134160000Y-112060000D01*
X130214000Y-117587600D02*
X134160000Y-113641600D01*
X130214000Y-130539700D02*
X130214000Y-117587600D01*
X127288800Y-133464900D02*
X130214000Y-130539700D01*
X127000000Y-133464900D02*
X127288800Y-133464900D01*
X127000000Y-134620000D02*
X127000000Y-133464900D01*
X127000000Y-137160000D02*
X127000000Y-136004900D01*
X135360000Y-112060000D02*
X135360000Y-113165100D01*
X132736200Y-115788900D02*
X135360000Y-113165100D01*
X132736200Y-130557600D02*
X132736200Y-115788900D01*
X127288900Y-136004900D02*
X132736200Y-130557600D01*
X127000000Y-136004900D02*
X127288900Y-136004900D01*
X134620000Y-126460000D02*
X133464900Y-126460000D01*
X127000000Y-139700000D02*
X127000000Y-138544900D01*
X139700000Y-126460000D02*
X138544900Y-126460000D01*
X138172200Y-127815300D02*
X134620000Y-127815300D01*
X138544900Y-127442600D02*
X138172200Y-127815300D01*
X138544900Y-126460000D02*
X138544900Y-127442600D01*
X134620000Y-131213700D02*
X134620000Y-127815300D01*
X127288800Y-138544900D02*
X134620000Y-131213700D01*
X127000000Y-138544900D02*
X127288800Y-138544900D01*
X134620000Y-127815300D02*
X134620000Y-126460000D01*
X133464900Y-116260200D02*
X133464900Y-126460000D01*
X136560000Y-113165100D02*
X133464900Y-116260200D01*
X136560000Y-112060000D02*
X136560000Y-113165100D01*
X137760000Y-114065000D02*
X137760000Y-112060000D01*
X138960000Y-115099800D02*
X138960000Y-112060000D01*
X140160000Y-116299800D02*
X138960000Y-115099800D01*
X140160000Y-120127900D02*
X140160000Y-116299800D01*
X140532600Y-120500500D02*
X140160000Y-120127900D01*
X140160000Y-112060000D02*
X140160000Y-113165100D01*
X140785900Y-113791000D02*
X140160000Y-113165100D01*
X140785900Y-119620000D02*
X140785900Y-113791000D01*
X141360000Y-112060000D02*
X141360000Y-113165100D01*
X141360000Y-118822000D02*
X141412000Y-118874000D01*
X141360000Y-113165100D02*
X141360000Y-118822000D01*
X143910000Y-110060000D02*
X143910000Y-110931400D01*
X143910000Y-108860000D02*
X145015100Y-108860000D01*
X145015100Y-111883900D02*
X145015100Y-108860000D01*
X144748200Y-112150800D02*
X145015100Y-111883900D01*
X145674800Y-108319700D02*
X145015100Y-107660000D01*
X145674800Y-111758500D02*
X145674800Y-108319700D01*
X146946300Y-113030000D02*
X145674800Y-111758500D01*
X147714400Y-113030000D02*
X146946300Y-113030000D01*
X148521300Y-113836900D02*
X147714400Y-113030000D01*
X148521300Y-119852400D02*
X148521300Y-113836900D01*
X147608800Y-120764900D02*
X148521300Y-119852400D01*
X147320000Y-120764900D02*
X147608800Y-120764900D01*
X147320000Y-121920000D02*
X147320000Y-120764900D01*
X143910000Y-107660000D02*
X145015100Y-107660000D01*
X143910000Y-106460000D02*
X142804900Y-106460000D01*
X142447500Y-106817400D02*
X142447500Y-107275400D01*
X142804900Y-106460000D02*
X142447500Y-106817400D01*
X143910000Y-105260000D02*
X145015100Y-105260000D01*
X142240000Y-122460000D02*
X143395100Y-122460000D01*
X145337700Y-119688600D02*
X145337700Y-122265600D01*
X147031200Y-117995100D02*
X145337700Y-119688600D01*
X147320000Y-117995100D02*
X147031200Y-117995100D01*
X143589500Y-122265600D02*
X145337700Y-122265600D01*
X143395100Y-122460000D02*
X143589500Y-122265600D01*
X145015100Y-106674400D02*
X145015100Y-105260000D01*
X146132400Y-107791700D02*
X145015100Y-106674400D01*
X146132400Y-109687400D02*
X146132400Y-107791700D01*
X146935000Y-110490000D02*
X146132400Y-109687400D01*
X147690000Y-110490000D02*
X146935000Y-110490000D01*
X148978900Y-111778900D02*
X147690000Y-110490000D01*
X148978900Y-121921600D02*
X148978900Y-111778900D01*
X147806100Y-123094400D02*
X148978900Y-121921600D01*
X146166500Y-123094400D02*
X147806100Y-123094400D01*
X145337700Y-122265600D02*
X146166500Y-123094400D01*
X147320000Y-116840000D02*
X147320000Y-117995100D01*
X142799200Y-104065700D02*
X142804900Y-104060000D01*
X142650100Y-104065700D02*
X142799200Y-104065700D01*
X143910000Y-104060000D02*
X142804900Y-104060000D01*
X147320000Y-114300000D02*
X147320000Y-115455100D01*
X137160000Y-122460000D02*
X138315100Y-122460000D01*
X146583500Y-115455100D02*
X147320000Y-115455100D01*
X140933000Y-121105600D02*
X146583500Y-115455100D01*
X138731000Y-121105600D02*
X140933000Y-121105600D01*
X138315100Y-121521500D02*
X138731000Y-121105600D01*
X138315100Y-122460000D02*
X138315100Y-121521500D01*
X143910000Y-102860000D02*
X142804900Y-102860000D01*
X142799200Y-102865700D02*
X142804900Y-102860000D01*
X142656600Y-102865700D02*
X142799200Y-102865700D01*
X147320000Y-109220000D02*
X147320000Y-108064900D01*
X143910000Y-101660000D02*
X145015100Y-101660000D01*
X147053600Y-108064900D02*
X147320000Y-108064900D01*
X145707300Y-106718600D02*
X147053600Y-108064900D01*
X145707300Y-102352200D02*
X145707300Y-106718600D01*
X145015100Y-101660000D02*
X145707300Y-102352200D01*
X146164800Y-101609700D02*
X145015100Y-100460000D01*
X146164800Y-104618400D02*
X146164800Y-101609700D01*
X147071300Y-105524900D02*
X146164800Y-104618400D01*
X147320000Y-105524900D02*
X147071300Y-105524900D01*
X147320000Y-106680000D02*
X147320000Y-105524900D01*
X143910000Y-100460000D02*
X145015100Y-100460000D01*
X143910000Y-99260000D02*
X145015100Y-99260000D01*
X145015100Y-99260000D02*
X145184100Y-99429000D01*
X145015100Y-98392500D02*
X145015100Y-98060000D01*
X147067500Y-100444900D02*
X145015100Y-98392500D01*
X147320000Y-100444900D02*
X147067500Y-100444900D01*
X147320000Y-101600000D02*
X147320000Y-100444900D01*
X143910000Y-98060000D02*
X145015100Y-98060000D01*
X145015100Y-96041400D02*
X145015100Y-95660000D01*
X146878600Y-97904900D02*
X145015100Y-96041400D01*
X147320000Y-97904900D02*
X146878600Y-97904900D01*
X147320000Y-99060000D02*
X147320000Y-97904900D01*
X143910000Y-95660000D02*
X145015100Y-95660000D01*
X146164900Y-95609800D02*
X145015100Y-94460000D01*
X146164900Y-96520000D02*
X146164900Y-95609800D01*
X147320000Y-96520000D02*
X146164900Y-96520000D01*
X143910000Y-94460000D02*
X145015100Y-94460000D01*
X145444900Y-93260000D02*
X143910000Y-93260000D01*
X146164900Y-93980000D02*
X145444900Y-93260000D01*
X147320000Y-93980000D02*
X146164900Y-93980000D01*
X145544900Y-92060000D02*
X143910000Y-92060000D01*
X146164900Y-91440000D02*
X145544900Y-92060000D01*
X147320000Y-91440000D02*
X146164900Y-91440000D01*
X135775100Y-126230200D02*
X136004900Y-126460000D01*
X135775100Y-122460000D02*
X135775100Y-126230200D01*
X137160000Y-126460000D02*
X136004900Y-126460000D01*
X134620000Y-122460000D02*
X135775100Y-122460000D01*
X140855100Y-126230200D02*
X141084900Y-126460000D01*
X140855100Y-122460000D02*
X140855100Y-126230200D01*
X142240000Y-126460000D02*
X141084900Y-126460000D01*
X139700000Y-122460000D02*
X140855100Y-122460000D01*
D19*
G36*
X125262524Y-105189776D02*
X125833471Y-105760723D01*
X125598946Y-106111715D01*
X125485907Y-106680000D01*
X125598946Y-107248285D01*
X125920853Y-107730054D01*
X126237164Y-107941406D01*
X126233221Y-107961229D01*
X125920853Y-108169946D01*
X125598946Y-108651715D01*
X125485907Y-109220000D01*
X125598946Y-109788285D01*
X125920853Y-110270054D01*
X126250026Y-110490000D01*
X125920853Y-110709946D01*
X125598946Y-111191715D01*
X125485907Y-111760000D01*
X125598946Y-112328285D01*
X125920853Y-112810054D01*
X126250026Y-113030000D01*
X125920853Y-113249946D01*
X125598946Y-113731715D01*
X125485907Y-114300000D01*
X125598946Y-114868285D01*
X125920853Y-115350054D01*
X126237164Y-115561406D01*
X126233221Y-115581229D01*
X125920853Y-115789946D01*
X125598946Y-116271715D01*
X125485907Y-116840000D01*
X125598946Y-117408285D01*
X125920853Y-117890054D01*
X126250026Y-118110000D01*
X125920853Y-118329946D01*
X125598946Y-118811715D01*
X125485907Y-119380000D01*
X125598946Y-119948285D01*
X125920853Y-120430054D01*
X126250026Y-120650000D01*
X125920853Y-120869946D01*
X125598946Y-121351715D01*
X125485907Y-121920000D01*
X125598946Y-122488285D01*
X125920853Y-122970054D01*
X126250026Y-123190000D01*
X125920853Y-123409946D01*
X125598946Y-123891715D01*
X125485907Y-124460000D01*
X125598946Y-125028285D01*
X125920853Y-125510054D01*
X126237164Y-125721406D01*
X126233221Y-125741229D01*
X125920853Y-125949946D01*
X125598946Y-126431715D01*
X125485907Y-127000000D01*
X125598946Y-127568285D01*
X125920853Y-128050054D01*
X126237164Y-128261406D01*
X126233221Y-128281229D01*
X125920853Y-128489946D01*
X125598946Y-128971715D01*
X125485907Y-129540000D01*
X125598946Y-130108285D01*
X125920853Y-130590054D01*
X126237164Y-130801406D01*
X126233221Y-130821229D01*
X125920853Y-131029946D01*
X125598946Y-131511715D01*
X125485907Y-132080000D01*
X125598946Y-132648285D01*
X125920853Y-133130054D01*
X126237164Y-133341406D01*
X126233221Y-133361229D01*
X125920853Y-133569946D01*
X125598946Y-134051715D01*
X125485907Y-134620000D01*
X125598946Y-135188285D01*
X125920853Y-135670054D01*
X126237164Y-135881406D01*
X126233221Y-135901229D01*
X125920853Y-136109946D01*
X125598946Y-136591715D01*
X125485907Y-137160000D01*
X125598946Y-137728285D01*
X125920853Y-138210054D01*
X126237164Y-138421406D01*
X126233221Y-138441229D01*
X125920853Y-138649946D01*
X125598946Y-139131715D01*
X125485907Y-139700000D01*
X125598946Y-140268285D01*
X125920853Y-140750054D01*
X126402622Y-141071961D01*
X126970907Y-141185000D01*
X127029093Y-141185000D01*
X127597378Y-141071961D01*
X128079147Y-140750054D01*
X128401054Y-140268285D01*
X128457253Y-139985750D01*
X145835000Y-139985750D01*
X145835000Y-140676310D01*
X145931673Y-140909699D01*
X146110302Y-141088327D01*
X146343691Y-141185000D01*
X147034250Y-141185000D01*
X147193000Y-141026250D01*
X147193000Y-139827000D01*
X147447000Y-139827000D01*
X147447000Y-141026250D01*
X147605750Y-141185000D01*
X148296309Y-141185000D01*
X148529698Y-141088327D01*
X148708327Y-140909699D01*
X148805000Y-140676310D01*
X148805000Y-139985750D01*
X148646250Y-139827000D01*
X147447000Y-139827000D01*
X147193000Y-139827000D01*
X145993750Y-139827000D01*
X145835000Y-139985750D01*
X128457253Y-139985750D01*
X128514093Y-139700000D01*
X128401054Y-139131715D01*
X128166529Y-138780723D01*
X132327252Y-134620000D01*
X135180000Y-134620000D01*
X135330719Y-135377713D01*
X135759929Y-136020071D01*
X136402287Y-136449281D01*
X137160000Y-136600000D01*
X137917713Y-136449281D01*
X138560071Y-136020071D01*
X138989281Y-135377713D01*
X139140000Y-134620000D01*
X138989281Y-133862287D01*
X138560071Y-133219929D01*
X137917713Y-132790719D01*
X137160000Y-132640000D01*
X136402287Y-132790719D01*
X135759929Y-133219929D01*
X135330719Y-133862287D01*
X135180000Y-134620000D01*
X132327252Y-134620000D01*
X135176776Y-131770476D01*
X135347463Y-131515025D01*
X135407400Y-131213700D01*
X135407400Y-128602700D01*
X138172200Y-128602700D01*
X138473525Y-128542763D01*
X138728976Y-128372076D01*
X138993612Y-128107440D01*
X140550000Y-128107440D01*
X140785317Y-128063162D01*
X140972077Y-127942985D01*
X141138110Y-128056431D01*
X141390000Y-128107440D01*
X143090000Y-128107440D01*
X143325317Y-128063162D01*
X143541441Y-127924090D01*
X143686431Y-127711890D01*
X143737440Y-127460000D01*
X143737440Y-125460000D01*
X143693162Y-125224683D01*
X143554090Y-125008559D01*
X143341890Y-124863569D01*
X143090000Y-124812560D01*
X141642500Y-124812560D01*
X141642500Y-124107440D01*
X143090000Y-124107440D01*
X143325317Y-124063162D01*
X143541441Y-123924090D01*
X143686431Y-123711890D01*
X143737440Y-123460000D01*
X143737440Y-123160058D01*
X143897663Y-123053000D01*
X145011548Y-123053000D01*
X145609724Y-123651176D01*
X145865175Y-123821863D01*
X145953836Y-123839499D01*
X145918946Y-123891715D01*
X145805907Y-124460000D01*
X145918946Y-125028285D01*
X146240853Y-125510054D01*
X146570026Y-125730000D01*
X146240853Y-125949946D01*
X145918946Y-126431715D01*
X145805907Y-127000000D01*
X145918946Y-127568285D01*
X146240853Y-128050054D01*
X146570026Y-128270000D01*
X146240853Y-128489946D01*
X145918946Y-128971715D01*
X145805907Y-129540000D01*
X145918946Y-130108285D01*
X146240853Y-130590054D01*
X146570026Y-130810000D01*
X146240853Y-131029946D01*
X145918946Y-131511715D01*
X145805907Y-132080000D01*
X145918946Y-132648285D01*
X146240853Y-133130054D01*
X146570026Y-133350000D01*
X146240853Y-133569946D01*
X145918946Y-134051715D01*
X145805907Y-134620000D01*
X145918946Y-135188285D01*
X146240853Y-135670054D01*
X146570026Y-135890000D01*
X146240853Y-136109946D01*
X145918946Y-136591715D01*
X145805907Y-137160000D01*
X145918946Y-137728285D01*
X146240853Y-138210054D01*
X146284777Y-138239403D01*
X146110302Y-138311673D01*
X145931673Y-138490301D01*
X145835000Y-138723690D01*
X145835000Y-139414250D01*
X145993750Y-139573000D01*
X147193000Y-139573000D01*
X147193000Y-139553000D01*
X147447000Y-139553000D01*
X147447000Y-139573000D01*
X148646250Y-139573000D01*
X148805000Y-139414250D01*
X148805000Y-138723690D01*
X148708327Y-138490301D01*
X148529698Y-138311673D01*
X148355223Y-138239403D01*
X148399147Y-138210054D01*
X148721054Y-137728285D01*
X148834093Y-137160000D01*
X148721054Y-136591715D01*
X148399147Y-136109946D01*
X148069974Y-135890000D01*
X148399147Y-135670054D01*
X148721054Y-135188285D01*
X148834093Y-134620000D01*
X148721054Y-134051715D01*
X148399147Y-133569946D01*
X148069974Y-133350000D01*
X148399147Y-133130054D01*
X148721054Y-132648285D01*
X148834093Y-132080000D01*
X148721054Y-131511715D01*
X148399147Y-131029946D01*
X148069974Y-130810000D01*
X148399147Y-130590054D01*
X148721054Y-130108285D01*
X148834093Y-129540000D01*
X148721054Y-128971715D01*
X148399147Y-128489946D01*
X148069974Y-128270000D01*
X148399147Y-128050054D01*
X148721054Y-127568285D01*
X148834093Y-127000000D01*
X148721054Y-126431715D01*
X148399147Y-125949946D01*
X148069974Y-125730000D01*
X148399147Y-125510054D01*
X148721054Y-125028285D01*
X148834093Y-124460000D01*
X148721054Y-123891715D01*
X148481242Y-123532810D01*
X149098000Y-122916052D01*
X149098000Y-141044394D01*
X148664394Y-141478000D01*
X125655606Y-141478000D01*
X125222000Y-141044394D01*
X125222000Y-105129128D01*
X125262524Y-105189776D01*
X125262524Y-105189776D01*
G37*
X125262524Y-105189776D02*
X125833471Y-105760723D01*
X125598946Y-106111715D01*
X125485907Y-106680000D01*
X125598946Y-107248285D01*
X125920853Y-107730054D01*
X126237164Y-107941406D01*
X126233221Y-107961229D01*
X125920853Y-108169946D01*
X125598946Y-108651715D01*
X125485907Y-109220000D01*
X125598946Y-109788285D01*
X125920853Y-110270054D01*
X126250026Y-110490000D01*
X125920853Y-110709946D01*
X125598946Y-111191715D01*
X125485907Y-111760000D01*
X125598946Y-112328285D01*
X125920853Y-112810054D01*
X126250026Y-113030000D01*
X125920853Y-113249946D01*
X125598946Y-113731715D01*
X125485907Y-114300000D01*
X125598946Y-114868285D01*
X125920853Y-115350054D01*
X126237164Y-115561406D01*
X126233221Y-115581229D01*
X125920853Y-115789946D01*
X125598946Y-116271715D01*
X125485907Y-116840000D01*
X125598946Y-117408285D01*
X125920853Y-117890054D01*
X126250026Y-118110000D01*
X125920853Y-118329946D01*
X125598946Y-118811715D01*
X125485907Y-119380000D01*
X125598946Y-119948285D01*
X125920853Y-120430054D01*
X126250026Y-120650000D01*
X125920853Y-120869946D01*
X125598946Y-121351715D01*
X125485907Y-121920000D01*
X125598946Y-122488285D01*
X125920853Y-122970054D01*
X126250026Y-123190000D01*
X125920853Y-123409946D01*
X125598946Y-123891715D01*
X125485907Y-124460000D01*
X125598946Y-125028285D01*
X125920853Y-125510054D01*
X126237164Y-125721406D01*
X126233221Y-125741229D01*
X125920853Y-125949946D01*
X125598946Y-126431715D01*
X125485907Y-127000000D01*
X125598946Y-127568285D01*
X125920853Y-128050054D01*
X126237164Y-128261406D01*
X126233221Y-128281229D01*
X125920853Y-128489946D01*
X125598946Y-128971715D01*
X125485907Y-129540000D01*
X125598946Y-130108285D01*
X125920853Y-130590054D01*
X126237164Y-130801406D01*
X126233221Y-130821229D01*
X125920853Y-131029946D01*
X125598946Y-131511715D01*
X125485907Y-132080000D01*
X125598946Y-132648285D01*
X125920853Y-133130054D01*
X126237164Y-133341406D01*
X126233221Y-133361229D01*
X125920853Y-133569946D01*
X125598946Y-134051715D01*
X125485907Y-134620000D01*
X125598946Y-135188285D01*
X125920853Y-135670054D01*
X126237164Y-135881406D01*
X126233221Y-135901229D01*
X125920853Y-136109946D01*
X125598946Y-136591715D01*
X125485907Y-137160000D01*
X125598946Y-137728285D01*
X125920853Y-138210054D01*
X126237164Y-138421406D01*
X126233221Y-138441229D01*
X125920853Y-138649946D01*
X125598946Y-139131715D01*
X125485907Y-139700000D01*
X125598946Y-140268285D01*
X125920853Y-140750054D01*
X126402622Y-141071961D01*
X126970907Y-141185000D01*
X127029093Y-141185000D01*
X127597378Y-141071961D01*
X128079147Y-140750054D01*
X128401054Y-140268285D01*
X128457253Y-139985750D01*
X145835000Y-139985750D01*
X145835000Y-140676310D01*
X145931673Y-140909699D01*
X146110302Y-141088327D01*
X146343691Y-141185000D01*
X147034250Y-141185000D01*
X147193000Y-141026250D01*
X147193000Y-139827000D01*
X147447000Y-139827000D01*
X147447000Y-141026250D01*
X147605750Y-141185000D01*
X148296309Y-141185000D01*
X148529698Y-141088327D01*
X148708327Y-140909699D01*
X148805000Y-140676310D01*
X148805000Y-139985750D01*
X148646250Y-139827000D01*
X147447000Y-139827000D01*
X147193000Y-139827000D01*
X145993750Y-139827000D01*
X145835000Y-139985750D01*
X128457253Y-139985750D01*
X128514093Y-139700000D01*
X128401054Y-139131715D01*
X128166529Y-138780723D01*
X132327252Y-134620000D01*
X135180000Y-134620000D01*
X135330719Y-135377713D01*
X135759929Y-136020071D01*
X136402287Y-136449281D01*
X137160000Y-136600000D01*
X137917713Y-136449281D01*
X138560071Y-136020071D01*
X138989281Y-135377713D01*
X139140000Y-134620000D01*
X138989281Y-133862287D01*
X138560071Y-133219929D01*
X137917713Y-132790719D01*
X137160000Y-132640000D01*
X136402287Y-132790719D01*
X135759929Y-133219929D01*
X135330719Y-133862287D01*
X135180000Y-134620000D01*
X132327252Y-134620000D01*
X135176776Y-131770476D01*
X135347463Y-131515025D01*
X135407400Y-131213700D01*
X135407400Y-128602700D01*
X138172200Y-128602700D01*
X138473525Y-128542763D01*
X138728976Y-128372076D01*
X138993612Y-128107440D01*
X140550000Y-128107440D01*
X140785317Y-128063162D01*
X140972077Y-127942985D01*
X141138110Y-128056431D01*
X141390000Y-128107440D01*
X143090000Y-128107440D01*
X143325317Y-128063162D01*
X143541441Y-127924090D01*
X143686431Y-127711890D01*
X143737440Y-127460000D01*
X143737440Y-125460000D01*
X143693162Y-125224683D01*
X143554090Y-125008559D01*
X143341890Y-124863569D01*
X143090000Y-124812560D01*
X141642500Y-124812560D01*
X141642500Y-124107440D01*
X143090000Y-124107440D01*
X143325317Y-124063162D01*
X143541441Y-123924090D01*
X143686431Y-123711890D01*
X143737440Y-123460000D01*
X143737440Y-123160058D01*
X143897663Y-123053000D01*
X145011548Y-123053000D01*
X145609724Y-123651176D01*
X145865175Y-123821863D01*
X145953836Y-123839499D01*
X145918946Y-123891715D01*
X145805907Y-124460000D01*
X145918946Y-125028285D01*
X146240853Y-125510054D01*
X146570026Y-125730000D01*
X146240853Y-125949946D01*
X145918946Y-126431715D01*
X145805907Y-127000000D01*
X145918946Y-127568285D01*
X146240853Y-128050054D01*
X146570026Y-128270000D01*
X146240853Y-128489946D01*
X145918946Y-128971715D01*
X145805907Y-129540000D01*
X145918946Y-130108285D01*
X146240853Y-130590054D01*
X146570026Y-130810000D01*
X146240853Y-131029946D01*
X145918946Y-131511715D01*
X145805907Y-132080000D01*
X145918946Y-132648285D01*
X146240853Y-133130054D01*
X146570026Y-133350000D01*
X146240853Y-133569946D01*
X145918946Y-134051715D01*
X145805907Y-134620000D01*
X145918946Y-135188285D01*
X146240853Y-135670054D01*
X146570026Y-135890000D01*
X146240853Y-136109946D01*
X145918946Y-136591715D01*
X145805907Y-137160000D01*
X145918946Y-137728285D01*
X146240853Y-138210054D01*
X146284777Y-138239403D01*
X146110302Y-138311673D01*
X145931673Y-138490301D01*
X145835000Y-138723690D01*
X145835000Y-139414250D01*
X145993750Y-139573000D01*
X147193000Y-139573000D01*
X147193000Y-139553000D01*
X147447000Y-139553000D01*
X147447000Y-139573000D01*
X148646250Y-139573000D01*
X148805000Y-139414250D01*
X148805000Y-138723690D01*
X148708327Y-138490301D01*
X148529698Y-138311673D01*
X148355223Y-138239403D01*
X148399147Y-138210054D01*
X148721054Y-137728285D01*
X148834093Y-137160000D01*
X148721054Y-136591715D01*
X148399147Y-136109946D01*
X148069974Y-135890000D01*
X148399147Y-135670054D01*
X148721054Y-135188285D01*
X148834093Y-134620000D01*
X148721054Y-134051715D01*
X148399147Y-133569946D01*
X148069974Y-133350000D01*
X148399147Y-133130054D01*
X148721054Y-132648285D01*
X148834093Y-132080000D01*
X148721054Y-131511715D01*
X148399147Y-131029946D01*
X148069974Y-130810000D01*
X148399147Y-130590054D01*
X148721054Y-130108285D01*
X148834093Y-129540000D01*
X148721054Y-128971715D01*
X148399147Y-128489946D01*
X148069974Y-128270000D01*
X148399147Y-128050054D01*
X148721054Y-127568285D01*
X148834093Y-127000000D01*
X148721054Y-126431715D01*
X148399147Y-125949946D01*
X148069974Y-125730000D01*
X148399147Y-125510054D01*
X148721054Y-125028285D01*
X148834093Y-124460000D01*
X148721054Y-123891715D01*
X148481242Y-123532810D01*
X149098000Y-122916052D01*
X149098000Y-141044394D01*
X148664394Y-141478000D01*
X125655606Y-141478000D01*
X125222000Y-141044394D01*
X125222000Y-105129128D01*
X125262524Y-105189776D01*
G36*
X143187000Y-111933000D02*
X143207000Y-111933000D01*
X143207000Y-112187000D01*
X143187000Y-112187000D01*
X143187000Y-113336250D01*
X143345750Y-113495000D01*
X143586310Y-113495000D01*
X143819699Y-113398327D01*
X143998327Y-113219698D01*
X144095000Y-112986309D01*
X144095000Y-112819904D01*
X144217873Y-112942992D01*
X144561401Y-113085638D01*
X144933367Y-113085962D01*
X145277143Y-112943917D01*
X145512109Y-112709361D01*
X146165487Y-113362739D01*
X145918946Y-113731715D01*
X145805907Y-114300000D01*
X145918946Y-114868285D01*
X145974148Y-114950900D01*
X142314723Y-118610325D01*
X142205117Y-118345057D01*
X142147400Y-118287239D01*
X142147400Y-113365299D01*
X142211441Y-113324090D01*
X142217377Y-113315402D01*
X142300301Y-113398327D01*
X142533690Y-113495000D01*
X142774250Y-113495000D01*
X142933000Y-113336250D01*
X142933000Y-112187000D01*
X142913000Y-112187000D01*
X142913000Y-111933000D01*
X142933000Y-111933000D01*
X142933000Y-111913000D01*
X143187000Y-111913000D01*
X143187000Y-111933000D01*
X143187000Y-111933000D01*
G37*
X143187000Y-111933000D02*
X143207000Y-111933000D01*
X143207000Y-112187000D01*
X143187000Y-112187000D01*
X143187000Y-113336250D01*
X143345750Y-113495000D01*
X143586310Y-113495000D01*
X143819699Y-113398327D01*
X143998327Y-113219698D01*
X144095000Y-112986309D01*
X144095000Y-112819904D01*
X144217873Y-112942992D01*
X144561401Y-113085638D01*
X144933367Y-113085962D01*
X145277143Y-112943917D01*
X145512109Y-112709361D01*
X146165487Y-113362739D01*
X145918946Y-113731715D01*
X145805907Y-114300000D01*
X145918946Y-114868285D01*
X145974148Y-114950900D01*
X142314723Y-118610325D01*
X142205117Y-118345057D01*
X142147400Y-118287239D01*
X142147400Y-113365299D01*
X142211441Y-113324090D01*
X142217377Y-113315402D01*
X142300301Y-113398327D01*
X142533690Y-113495000D01*
X142774250Y-113495000D01*
X142933000Y-113336250D01*
X142933000Y-112187000D01*
X142913000Y-112187000D01*
X142913000Y-111933000D01*
X142933000Y-111933000D01*
X142933000Y-111913000D01*
X143187000Y-111913000D01*
X143187000Y-111933000D01*
G36*
X130225000Y-111133691D02*
X130225000Y-111774250D01*
X130383750Y-111933000D01*
X131133000Y-111933000D01*
X131133000Y-111913000D01*
X131387000Y-111913000D01*
X131387000Y-111933000D01*
X131407000Y-111933000D01*
X131407000Y-112187000D01*
X131387000Y-112187000D01*
X131387000Y-113336250D01*
X131531149Y-113480399D01*
X129898500Y-115113048D01*
X129898500Y-112345750D01*
X130225000Y-112345750D01*
X130225000Y-112986309D01*
X130321673Y-113219698D01*
X130500301Y-113398327D01*
X130733690Y-113495000D01*
X130974250Y-113495000D01*
X131133000Y-113336250D01*
X131133000Y-112187000D01*
X130383750Y-112187000D01*
X130225000Y-112345750D01*
X129898500Y-112345750D01*
X129898500Y-111107440D01*
X130235874Y-111107440D01*
X130225000Y-111133691D01*
X130225000Y-111133691D01*
G37*
X130225000Y-111133691D02*
X130225000Y-111774250D01*
X130383750Y-111933000D01*
X131133000Y-111933000D01*
X131133000Y-111913000D01*
X131387000Y-111913000D01*
X131387000Y-111933000D01*
X131407000Y-111933000D01*
X131407000Y-112187000D01*
X131387000Y-112187000D01*
X131387000Y-113336250D01*
X131531149Y-113480399D01*
X129898500Y-115113048D01*
X129898500Y-112345750D01*
X130225000Y-112345750D01*
X130225000Y-112986309D01*
X130321673Y-113219698D01*
X130500301Y-113398327D01*
X130733690Y-113495000D01*
X130974250Y-113495000D01*
X131133000Y-113336250D01*
X131133000Y-112187000D01*
X130383750Y-112187000D01*
X130225000Y-112345750D01*
X129898500Y-112345750D01*
X129898500Y-111107440D01*
X130235874Y-111107440D01*
X130225000Y-111133691D01*
G36*
X149098000Y-90095606D02*
X149098000Y-110784448D01*
X148473031Y-110159479D01*
X148721054Y-109788285D01*
X148834093Y-109220000D01*
X148721054Y-108651715D01*
X148399147Y-108169946D01*
X148086779Y-107961229D01*
X148082836Y-107941406D01*
X148399147Y-107730054D01*
X148721054Y-107248285D01*
X148834093Y-106680000D01*
X148721054Y-106111715D01*
X148399147Y-105629946D01*
X148086779Y-105421229D01*
X148082836Y-105401406D01*
X148399147Y-105190054D01*
X148721054Y-104708285D01*
X148834093Y-104140000D01*
X148721054Y-103571715D01*
X148399147Y-103089946D01*
X148069974Y-102870000D01*
X148399147Y-102650054D01*
X148721054Y-102168285D01*
X148834093Y-101600000D01*
X148721054Y-101031715D01*
X148399147Y-100549946D01*
X148086779Y-100341229D01*
X148082836Y-100321406D01*
X148399147Y-100110054D01*
X148721054Y-99628285D01*
X148834093Y-99060000D01*
X148721054Y-98491715D01*
X148399147Y-98009946D01*
X148086779Y-97801229D01*
X148082836Y-97781406D01*
X148399147Y-97570054D01*
X148721054Y-97088285D01*
X148834093Y-96520000D01*
X148721054Y-95951715D01*
X148399147Y-95469946D01*
X148069974Y-95250000D01*
X148399147Y-95030054D01*
X148721054Y-94548285D01*
X148834093Y-93980000D01*
X148721054Y-93411715D01*
X148399147Y-92929946D01*
X148069974Y-92710000D01*
X148399147Y-92490054D01*
X148721054Y-92008285D01*
X148834093Y-91440000D01*
X148721054Y-90871715D01*
X148399147Y-90389946D01*
X147917378Y-90068039D01*
X147349093Y-89955000D01*
X147290907Y-89955000D01*
X146722622Y-90068039D01*
X146240853Y-90389946D01*
X146050095Y-90675436D01*
X145863575Y-90712537D01*
X145608124Y-90883224D01*
X145345000Y-91146348D01*
X145345000Y-91145750D01*
X145186250Y-90987000D01*
X144037000Y-90987000D01*
X144037000Y-91007000D01*
X143783000Y-91007000D01*
X143783000Y-90987000D01*
X142633750Y-90987000D01*
X142475000Y-91145750D01*
X142475000Y-91386310D01*
X142503870Y-91456007D01*
X142462560Y-91660000D01*
X142462560Y-92460000D01*
X142501574Y-92667342D01*
X142462560Y-92860000D01*
X142462560Y-93660000D01*
X142501574Y-93867342D01*
X142462560Y-94060000D01*
X142462560Y-94860000D01*
X142501574Y-95067342D01*
X142462560Y-95260000D01*
X142462560Y-96060000D01*
X142501858Y-96268850D01*
X142475000Y-96333690D01*
X142475000Y-96574250D01*
X142633750Y-96733000D01*
X143783000Y-96733000D01*
X143783000Y-96713000D01*
X144037000Y-96713000D01*
X144037000Y-96733000D01*
X144057000Y-96733000D01*
X144057000Y-96987000D01*
X144037000Y-96987000D01*
X144037000Y-97007000D01*
X143783000Y-97007000D01*
X143783000Y-96987000D01*
X142633750Y-96987000D01*
X142475000Y-97145750D01*
X142475000Y-97386310D01*
X142503870Y-97456007D01*
X142462560Y-97660000D01*
X142462560Y-98460000D01*
X142501574Y-98667342D01*
X142462560Y-98860000D01*
X142462560Y-99660000D01*
X142501574Y-99867342D01*
X142462560Y-100060000D01*
X142462560Y-100860000D01*
X142501574Y-101067342D01*
X142462560Y-101260000D01*
X142462560Y-101934204D01*
X142127657Y-102072583D01*
X141864408Y-102335373D01*
X141721762Y-102678901D01*
X141721438Y-103050867D01*
X141863483Y-103394643D01*
X141931065Y-103462343D01*
X141857908Y-103535373D01*
X141715262Y-103878901D01*
X141714938Y-104250867D01*
X141856983Y-104594643D01*
X142119773Y-104857892D01*
X142462560Y-105000230D01*
X142462560Y-105660000D01*
X142479265Y-105748780D01*
X142248124Y-105903224D01*
X141890724Y-106260624D01*
X141720037Y-106516075D01*
X141679238Y-106721184D01*
X141655308Y-106745073D01*
X141512662Y-107088601D01*
X141512338Y-107460567D01*
X141654383Y-107804343D01*
X141917173Y-108067592D01*
X142260701Y-108210238D01*
X142490867Y-108210438D01*
X142501574Y-108267342D01*
X142462560Y-108460000D01*
X142462560Y-109260000D01*
X142501574Y-109467342D01*
X142462560Y-109660000D01*
X142462560Y-110460000D01*
X142496505Y-110640403D01*
X142300301Y-110721673D01*
X142217748Y-110804226D01*
X142011890Y-110663569D01*
X141760000Y-110612560D01*
X140960000Y-110612560D01*
X140752658Y-110651574D01*
X140560000Y-110612560D01*
X139760000Y-110612560D01*
X139552658Y-110651574D01*
X139360000Y-110612560D01*
X138560000Y-110612560D01*
X138352658Y-110651574D01*
X138160000Y-110612560D01*
X137360000Y-110612560D01*
X137152658Y-110651574D01*
X136960000Y-110612560D01*
X136160000Y-110612560D01*
X135952658Y-110651574D01*
X135760000Y-110612560D01*
X134960000Y-110612560D01*
X134752658Y-110651574D01*
X134560000Y-110612560D01*
X133760000Y-110612560D01*
X133552658Y-110651574D01*
X133360000Y-110612560D01*
X132563981Y-110612560D01*
X132610638Y-110500199D01*
X132610962Y-110128233D01*
X132468917Y-109784457D01*
X132463200Y-109778730D01*
X132463200Y-107820700D01*
X132403263Y-107519375D01*
X132276099Y-107329061D01*
X132481992Y-107123527D01*
X132624638Y-106779999D01*
X132624962Y-106408033D01*
X132482917Y-106064257D01*
X132329332Y-105910404D01*
X132491592Y-105748427D01*
X132634238Y-105404899D01*
X132634562Y-105032933D01*
X132492517Y-104689157D01*
X132229727Y-104425908D01*
X131886199Y-104283262D01*
X131857440Y-104283237D01*
X131857440Y-103777260D01*
X131859567Y-103777262D01*
X132203343Y-103635217D01*
X132466592Y-103372427D01*
X132609238Y-103028899D01*
X132609562Y-102656933D01*
X132467517Y-102313157D01*
X132382894Y-102228386D01*
X132462392Y-102149027D01*
X132605038Y-101805499D01*
X132605362Y-101433533D01*
X132463317Y-101089757D01*
X132200527Y-100826508D01*
X131857440Y-100684045D01*
X131857440Y-100060000D01*
X131818426Y-99852658D01*
X131857440Y-99660000D01*
X131857440Y-98860000D01*
X131818426Y-98652658D01*
X131857440Y-98460000D01*
X131857440Y-97660000D01*
X131818426Y-97452658D01*
X131857440Y-97260000D01*
X131857440Y-96460000D01*
X131818426Y-96252658D01*
X131857440Y-96060000D01*
X131857440Y-95260000D01*
X131818426Y-95052658D01*
X131857440Y-94860000D01*
X131857440Y-94060000D01*
X131818426Y-93852658D01*
X131857440Y-93660000D01*
X131857440Y-92860000D01*
X131818426Y-92652658D01*
X131857440Y-92460000D01*
X131857440Y-91660000D01*
X131854759Y-91645750D01*
X132625000Y-91645750D01*
X132625000Y-91986310D01*
X132721673Y-92219699D01*
X132900302Y-92398327D01*
X133133691Y-92495000D01*
X133374250Y-92495000D01*
X133533000Y-92336250D01*
X133533000Y-91487000D01*
X133787000Y-91487000D01*
X133787000Y-92336250D01*
X133945750Y-92495000D01*
X134186309Y-92495000D01*
X134360000Y-92423055D01*
X134533691Y-92495000D01*
X134774250Y-92495000D01*
X134933000Y-92336250D01*
X134933000Y-91487000D01*
X135187000Y-91487000D01*
X135187000Y-92336250D01*
X135345750Y-92495000D01*
X135586309Y-92495000D01*
X135760000Y-92423055D01*
X135933691Y-92495000D01*
X136174250Y-92495000D01*
X136333000Y-92336250D01*
X136333000Y-91487000D01*
X136587000Y-91487000D01*
X136587000Y-92336250D01*
X136745750Y-92495000D01*
X136986309Y-92495000D01*
X137160000Y-92423055D01*
X137333691Y-92495000D01*
X137574250Y-92495000D01*
X137733000Y-92336250D01*
X137733000Y-91487000D01*
X137987000Y-91487000D01*
X137987000Y-92336250D01*
X138145750Y-92495000D01*
X138386309Y-92495000D01*
X138560000Y-92423055D01*
X138733691Y-92495000D01*
X138974250Y-92495000D01*
X139133000Y-92336250D01*
X139133000Y-91487000D01*
X139387000Y-91487000D01*
X139387000Y-92336250D01*
X139545750Y-92495000D01*
X139786309Y-92495000D01*
X139960000Y-92423055D01*
X140133691Y-92495000D01*
X140374250Y-92495000D01*
X140533000Y-92336250D01*
X140533000Y-91487000D01*
X140787000Y-91487000D01*
X140787000Y-92336250D01*
X140945750Y-92495000D01*
X141186309Y-92495000D01*
X141419698Y-92398327D01*
X141598327Y-92219699D01*
X141695000Y-91986310D01*
X141695000Y-91645750D01*
X141536250Y-91487000D01*
X140787000Y-91487000D01*
X140533000Y-91487000D01*
X139387000Y-91487000D01*
X139133000Y-91487000D01*
X137987000Y-91487000D01*
X137733000Y-91487000D01*
X136587000Y-91487000D01*
X136333000Y-91487000D01*
X135187000Y-91487000D01*
X134933000Y-91487000D01*
X133787000Y-91487000D01*
X133533000Y-91487000D01*
X132783750Y-91487000D01*
X132625000Y-91645750D01*
X131854759Y-91645750D01*
X131818142Y-91451150D01*
X131845000Y-91386310D01*
X131845000Y-91145750D01*
X131686250Y-90987000D01*
X130537000Y-90987000D01*
X130537000Y-91007000D01*
X130283000Y-91007000D01*
X130283000Y-90987000D01*
X129133750Y-90987000D01*
X128975000Y-91145750D01*
X128975000Y-91146348D01*
X128711876Y-90883224D01*
X128497440Y-90739942D01*
X128497440Y-90733690D01*
X132625000Y-90733690D01*
X132625000Y-91074250D01*
X132783750Y-91233000D01*
X133533000Y-91233000D01*
X133533000Y-90383750D01*
X133787000Y-90383750D01*
X133787000Y-91233000D01*
X134933000Y-91233000D01*
X134933000Y-90383750D01*
X135187000Y-90383750D01*
X135187000Y-91233000D01*
X136333000Y-91233000D01*
X136333000Y-90383750D01*
X136587000Y-90383750D01*
X136587000Y-91233000D01*
X137733000Y-91233000D01*
X137733000Y-90383750D01*
X137987000Y-90383750D01*
X137987000Y-91233000D01*
X139133000Y-91233000D01*
X139133000Y-90383750D01*
X139387000Y-90383750D01*
X139387000Y-91233000D01*
X140533000Y-91233000D01*
X140533000Y-90383750D01*
X140787000Y-90383750D01*
X140787000Y-91233000D01*
X141536250Y-91233000D01*
X141695000Y-91074250D01*
X141695000Y-90733690D01*
X141598327Y-90500301D01*
X141431716Y-90333690D01*
X142475000Y-90333690D01*
X142475000Y-90574250D01*
X142633750Y-90733000D01*
X143783000Y-90733000D01*
X143783000Y-89983750D01*
X144037000Y-89983750D01*
X144037000Y-90733000D01*
X145186250Y-90733000D01*
X145345000Y-90574250D01*
X145345000Y-90333690D01*
X145248327Y-90100301D01*
X145069698Y-89921673D01*
X144836309Y-89825000D01*
X144195750Y-89825000D01*
X144037000Y-89983750D01*
X143783000Y-89983750D01*
X143624250Y-89825000D01*
X142983691Y-89825000D01*
X142750302Y-89921673D01*
X142571673Y-90100301D01*
X142475000Y-90333690D01*
X141431716Y-90333690D01*
X141419698Y-90321673D01*
X141186309Y-90225000D01*
X140945750Y-90225000D01*
X140787000Y-90383750D01*
X140533000Y-90383750D01*
X140374250Y-90225000D01*
X140133691Y-90225000D01*
X139960000Y-90296945D01*
X139786309Y-90225000D01*
X139545750Y-90225000D01*
X139387000Y-90383750D01*
X139133000Y-90383750D01*
X138974250Y-90225000D01*
X138733691Y-90225000D01*
X138560000Y-90296945D01*
X138386309Y-90225000D01*
X138145750Y-90225000D01*
X137987000Y-90383750D01*
X137733000Y-90383750D01*
X137574250Y-90225000D01*
X137333691Y-90225000D01*
X137160000Y-90296945D01*
X136986309Y-90225000D01*
X136745750Y-90225000D01*
X136587000Y-90383750D01*
X136333000Y-90383750D01*
X136174250Y-90225000D01*
X135933691Y-90225000D01*
X135760000Y-90296945D01*
X135586309Y-90225000D01*
X135345750Y-90225000D01*
X135187000Y-90383750D01*
X134933000Y-90383750D01*
X134774250Y-90225000D01*
X134533691Y-90225000D01*
X134360000Y-90296945D01*
X134186309Y-90225000D01*
X133945750Y-90225000D01*
X133787000Y-90383750D01*
X133533000Y-90383750D01*
X133374250Y-90225000D01*
X133133691Y-90225000D01*
X132900302Y-90321673D01*
X132721673Y-90500301D01*
X132625000Y-90733690D01*
X128497440Y-90733690D01*
X128497440Y-90590000D01*
X128453162Y-90354683D01*
X128439654Y-90333690D01*
X128975000Y-90333690D01*
X128975000Y-90574250D01*
X129133750Y-90733000D01*
X130283000Y-90733000D01*
X130283000Y-89983750D01*
X130537000Y-89983750D01*
X130537000Y-90733000D01*
X131686250Y-90733000D01*
X131845000Y-90574250D01*
X131845000Y-90333690D01*
X131748327Y-90100301D01*
X131569698Y-89921673D01*
X131336309Y-89825000D01*
X130695750Y-89825000D01*
X130537000Y-89983750D01*
X130283000Y-89983750D01*
X130124250Y-89825000D01*
X129483691Y-89825000D01*
X129250302Y-89921673D01*
X129071673Y-90100301D01*
X128975000Y-90333690D01*
X128439654Y-90333690D01*
X128314090Y-90138559D01*
X128101890Y-89993569D01*
X127850000Y-89942560D01*
X126150000Y-89942560D01*
X125914683Y-89986838D01*
X125698559Y-90125910D01*
X125553569Y-90338110D01*
X125502560Y-90590000D01*
X125502560Y-92290000D01*
X125546838Y-92525317D01*
X125685910Y-92741441D01*
X125898110Y-92886431D01*
X125965541Y-92900086D01*
X125920853Y-92929946D01*
X125598946Y-93411715D01*
X125485907Y-93980000D01*
X125598946Y-94548285D01*
X125920853Y-95030054D01*
X126250026Y-95250000D01*
X125920853Y-95469946D01*
X125598946Y-95951715D01*
X125485907Y-96520000D01*
X125598946Y-97088285D01*
X125920853Y-97570054D01*
X126237164Y-97781406D01*
X126233221Y-97801229D01*
X125920853Y-98009946D01*
X125598946Y-98491715D01*
X125485907Y-99060000D01*
X125598946Y-99628285D01*
X125846969Y-99999479D01*
X125262524Y-100583924D01*
X125222000Y-100644572D01*
X125222000Y-90095606D01*
X125655606Y-89662000D01*
X148664394Y-89662000D01*
X149098000Y-90095606D01*
X149098000Y-90095606D01*
G37*
X149098000Y-90095606D02*
X149098000Y-110784448D01*
X148473031Y-110159479D01*
X148721054Y-109788285D01*
X148834093Y-109220000D01*
X148721054Y-108651715D01*
X148399147Y-108169946D01*
X148086779Y-107961229D01*
X148082836Y-107941406D01*
X148399147Y-107730054D01*
X148721054Y-107248285D01*
X148834093Y-106680000D01*
X148721054Y-106111715D01*
X148399147Y-105629946D01*
X148086779Y-105421229D01*
X148082836Y-105401406D01*
X148399147Y-105190054D01*
X148721054Y-104708285D01*
X148834093Y-104140000D01*
X148721054Y-103571715D01*
X148399147Y-103089946D01*
X148069974Y-102870000D01*
X148399147Y-102650054D01*
X148721054Y-102168285D01*
X148834093Y-101600000D01*
X148721054Y-101031715D01*
X148399147Y-100549946D01*
X148086779Y-100341229D01*
X148082836Y-100321406D01*
X148399147Y-100110054D01*
X148721054Y-99628285D01*
X148834093Y-99060000D01*
X148721054Y-98491715D01*
X148399147Y-98009946D01*
X148086779Y-97801229D01*
X148082836Y-97781406D01*
X148399147Y-97570054D01*
X148721054Y-97088285D01*
X148834093Y-96520000D01*
X148721054Y-95951715D01*
X148399147Y-95469946D01*
X148069974Y-95250000D01*
X148399147Y-95030054D01*
X148721054Y-94548285D01*
X148834093Y-93980000D01*
X148721054Y-93411715D01*
X148399147Y-92929946D01*
X148069974Y-92710000D01*
X148399147Y-92490054D01*
X148721054Y-92008285D01*
X148834093Y-91440000D01*
X148721054Y-90871715D01*
X148399147Y-90389946D01*
X147917378Y-90068039D01*
X147349093Y-89955000D01*
X147290907Y-89955000D01*
X146722622Y-90068039D01*
X146240853Y-90389946D01*
X146050095Y-90675436D01*
X145863575Y-90712537D01*
X145608124Y-90883224D01*
X145345000Y-91146348D01*
X145345000Y-91145750D01*
X145186250Y-90987000D01*
X144037000Y-90987000D01*
X144037000Y-91007000D01*
X143783000Y-91007000D01*
X143783000Y-90987000D01*
X142633750Y-90987000D01*
X142475000Y-91145750D01*
X142475000Y-91386310D01*
X142503870Y-91456007D01*
X142462560Y-91660000D01*
X142462560Y-92460000D01*
X142501574Y-92667342D01*
X142462560Y-92860000D01*
X142462560Y-93660000D01*
X142501574Y-93867342D01*
X142462560Y-94060000D01*
X142462560Y-94860000D01*
X142501574Y-95067342D01*
X142462560Y-95260000D01*
X142462560Y-96060000D01*
X142501858Y-96268850D01*
X142475000Y-96333690D01*
X142475000Y-96574250D01*
X142633750Y-96733000D01*
X143783000Y-96733000D01*
X143783000Y-96713000D01*
X144037000Y-96713000D01*
X144037000Y-96733000D01*
X144057000Y-96733000D01*
X144057000Y-96987000D01*
X144037000Y-96987000D01*
X144037000Y-97007000D01*
X143783000Y-97007000D01*
X143783000Y-96987000D01*
X142633750Y-96987000D01*
X142475000Y-97145750D01*
X142475000Y-97386310D01*
X142503870Y-97456007D01*
X142462560Y-97660000D01*
X142462560Y-98460000D01*
X142501574Y-98667342D01*
X142462560Y-98860000D01*
X142462560Y-99660000D01*
X142501574Y-99867342D01*
X142462560Y-100060000D01*
X142462560Y-100860000D01*
X142501574Y-101067342D01*
X142462560Y-101260000D01*
X142462560Y-101934204D01*
X142127657Y-102072583D01*
X141864408Y-102335373D01*
X141721762Y-102678901D01*
X141721438Y-103050867D01*
X141863483Y-103394643D01*
X141931065Y-103462343D01*
X141857908Y-103535373D01*
X141715262Y-103878901D01*
X141714938Y-104250867D01*
X141856983Y-104594643D01*
X142119773Y-104857892D01*
X142462560Y-105000230D01*
X142462560Y-105660000D01*
X142479265Y-105748780D01*
X142248124Y-105903224D01*
X141890724Y-106260624D01*
X141720037Y-106516075D01*
X141679238Y-106721184D01*
X141655308Y-106745073D01*
X141512662Y-107088601D01*
X141512338Y-107460567D01*
X141654383Y-107804343D01*
X141917173Y-108067592D01*
X142260701Y-108210238D01*
X142490867Y-108210438D01*
X142501574Y-108267342D01*
X142462560Y-108460000D01*
X142462560Y-109260000D01*
X142501574Y-109467342D01*
X142462560Y-109660000D01*
X142462560Y-110460000D01*
X142496505Y-110640403D01*
X142300301Y-110721673D01*
X142217748Y-110804226D01*
X142011890Y-110663569D01*
X141760000Y-110612560D01*
X140960000Y-110612560D01*
X140752658Y-110651574D01*
X140560000Y-110612560D01*
X139760000Y-110612560D01*
X139552658Y-110651574D01*
X139360000Y-110612560D01*
X138560000Y-110612560D01*
X138352658Y-110651574D01*
X138160000Y-110612560D01*
X137360000Y-110612560D01*
X137152658Y-110651574D01*
X136960000Y-110612560D01*
X136160000Y-110612560D01*
X135952658Y-110651574D01*
X135760000Y-110612560D01*
X134960000Y-110612560D01*
X134752658Y-110651574D01*
X134560000Y-110612560D01*
X133760000Y-110612560D01*
X133552658Y-110651574D01*
X133360000Y-110612560D01*
X132563981Y-110612560D01*
X132610638Y-110500199D01*
X132610962Y-110128233D01*
X132468917Y-109784457D01*
X132463200Y-109778730D01*
X132463200Y-107820700D01*
X132403263Y-107519375D01*
X132276099Y-107329061D01*
X132481992Y-107123527D01*
X132624638Y-106779999D01*
X132624962Y-106408033D01*
X132482917Y-106064257D01*
X132329332Y-105910404D01*
X132491592Y-105748427D01*
X132634238Y-105404899D01*
X132634562Y-105032933D01*
X132492517Y-104689157D01*
X132229727Y-104425908D01*
X131886199Y-104283262D01*
X131857440Y-104283237D01*
X131857440Y-103777260D01*
X131859567Y-103777262D01*
X132203343Y-103635217D01*
X132466592Y-103372427D01*
X132609238Y-103028899D01*
X132609562Y-102656933D01*
X132467517Y-102313157D01*
X132382894Y-102228386D01*
X132462392Y-102149027D01*
X132605038Y-101805499D01*
X132605362Y-101433533D01*
X132463317Y-101089757D01*
X132200527Y-100826508D01*
X131857440Y-100684045D01*
X131857440Y-100060000D01*
X131818426Y-99852658D01*
X131857440Y-99660000D01*
X131857440Y-98860000D01*
X131818426Y-98652658D01*
X131857440Y-98460000D01*
X131857440Y-97660000D01*
X131818426Y-97452658D01*
X131857440Y-97260000D01*
X131857440Y-96460000D01*
X131818426Y-96252658D01*
X131857440Y-96060000D01*
X131857440Y-95260000D01*
X131818426Y-95052658D01*
X131857440Y-94860000D01*
X131857440Y-94060000D01*
X131818426Y-93852658D01*
X131857440Y-93660000D01*
X131857440Y-92860000D01*
X131818426Y-92652658D01*
X131857440Y-92460000D01*
X131857440Y-91660000D01*
X131854759Y-91645750D01*
X132625000Y-91645750D01*
X132625000Y-91986310D01*
X132721673Y-92219699D01*
X132900302Y-92398327D01*
X133133691Y-92495000D01*
X133374250Y-92495000D01*
X133533000Y-92336250D01*
X133533000Y-91487000D01*
X133787000Y-91487000D01*
X133787000Y-92336250D01*
X133945750Y-92495000D01*
X134186309Y-92495000D01*
X134360000Y-92423055D01*
X134533691Y-92495000D01*
X134774250Y-92495000D01*
X134933000Y-92336250D01*
X134933000Y-91487000D01*
X135187000Y-91487000D01*
X135187000Y-92336250D01*
X135345750Y-92495000D01*
X135586309Y-92495000D01*
X135760000Y-92423055D01*
X135933691Y-92495000D01*
X136174250Y-92495000D01*
X136333000Y-92336250D01*
X136333000Y-91487000D01*
X136587000Y-91487000D01*
X136587000Y-92336250D01*
X136745750Y-92495000D01*
X136986309Y-92495000D01*
X137160000Y-92423055D01*
X137333691Y-92495000D01*
X137574250Y-92495000D01*
X137733000Y-92336250D01*
X137733000Y-91487000D01*
X137987000Y-91487000D01*
X137987000Y-92336250D01*
X138145750Y-92495000D01*
X138386309Y-92495000D01*
X138560000Y-92423055D01*
X138733691Y-92495000D01*
X138974250Y-92495000D01*
X139133000Y-92336250D01*
X139133000Y-91487000D01*
X139387000Y-91487000D01*
X139387000Y-92336250D01*
X139545750Y-92495000D01*
X139786309Y-92495000D01*
X139960000Y-92423055D01*
X140133691Y-92495000D01*
X140374250Y-92495000D01*
X140533000Y-92336250D01*
X140533000Y-91487000D01*
X140787000Y-91487000D01*
X140787000Y-92336250D01*
X140945750Y-92495000D01*
X141186309Y-92495000D01*
X141419698Y-92398327D01*
X141598327Y-92219699D01*
X141695000Y-91986310D01*
X141695000Y-91645750D01*
X141536250Y-91487000D01*
X140787000Y-91487000D01*
X140533000Y-91487000D01*
X139387000Y-91487000D01*
X139133000Y-91487000D01*
X137987000Y-91487000D01*
X137733000Y-91487000D01*
X136587000Y-91487000D01*
X136333000Y-91487000D01*
X135187000Y-91487000D01*
X134933000Y-91487000D01*
X133787000Y-91487000D01*
X133533000Y-91487000D01*
X132783750Y-91487000D01*
X132625000Y-91645750D01*
X131854759Y-91645750D01*
X131818142Y-91451150D01*
X131845000Y-91386310D01*
X131845000Y-91145750D01*
X131686250Y-90987000D01*
X130537000Y-90987000D01*
X130537000Y-91007000D01*
X130283000Y-91007000D01*
X130283000Y-90987000D01*
X129133750Y-90987000D01*
X128975000Y-91145750D01*
X128975000Y-91146348D01*
X128711876Y-90883224D01*
X128497440Y-90739942D01*
X128497440Y-90733690D01*
X132625000Y-90733690D01*
X132625000Y-91074250D01*
X132783750Y-91233000D01*
X133533000Y-91233000D01*
X133533000Y-90383750D01*
X133787000Y-90383750D01*
X133787000Y-91233000D01*
X134933000Y-91233000D01*
X134933000Y-90383750D01*
X135187000Y-90383750D01*
X135187000Y-91233000D01*
X136333000Y-91233000D01*
X136333000Y-90383750D01*
X136587000Y-90383750D01*
X136587000Y-91233000D01*
X137733000Y-91233000D01*
X137733000Y-90383750D01*
X137987000Y-90383750D01*
X137987000Y-91233000D01*
X139133000Y-91233000D01*
X139133000Y-90383750D01*
X139387000Y-90383750D01*
X139387000Y-91233000D01*
X140533000Y-91233000D01*
X140533000Y-90383750D01*
X140787000Y-90383750D01*
X140787000Y-91233000D01*
X141536250Y-91233000D01*
X141695000Y-91074250D01*
X141695000Y-90733690D01*
X141598327Y-90500301D01*
X141431716Y-90333690D01*
X142475000Y-90333690D01*
X142475000Y-90574250D01*
X142633750Y-90733000D01*
X143783000Y-90733000D01*
X143783000Y-89983750D01*
X144037000Y-89983750D01*
X144037000Y-90733000D01*
X145186250Y-90733000D01*
X145345000Y-90574250D01*
X145345000Y-90333690D01*
X145248327Y-90100301D01*
X145069698Y-89921673D01*
X144836309Y-89825000D01*
X144195750Y-89825000D01*
X144037000Y-89983750D01*
X143783000Y-89983750D01*
X143624250Y-89825000D01*
X142983691Y-89825000D01*
X142750302Y-89921673D01*
X142571673Y-90100301D01*
X142475000Y-90333690D01*
X141431716Y-90333690D01*
X141419698Y-90321673D01*
X141186309Y-90225000D01*
X140945750Y-90225000D01*
X140787000Y-90383750D01*
X140533000Y-90383750D01*
X140374250Y-90225000D01*
X140133691Y-90225000D01*
X139960000Y-90296945D01*
X139786309Y-90225000D01*
X139545750Y-90225000D01*
X139387000Y-90383750D01*
X139133000Y-90383750D01*
X138974250Y-90225000D01*
X138733691Y-90225000D01*
X138560000Y-90296945D01*
X138386309Y-90225000D01*
X138145750Y-90225000D01*
X137987000Y-90383750D01*
X137733000Y-90383750D01*
X137574250Y-90225000D01*
X137333691Y-90225000D01*
X137160000Y-90296945D01*
X136986309Y-90225000D01*
X136745750Y-90225000D01*
X136587000Y-90383750D01*
X136333000Y-90383750D01*
X136174250Y-90225000D01*
X135933691Y-90225000D01*
X135760000Y-90296945D01*
X135586309Y-90225000D01*
X135345750Y-90225000D01*
X135187000Y-90383750D01*
X134933000Y-90383750D01*
X134774250Y-90225000D01*
X134533691Y-90225000D01*
X134360000Y-90296945D01*
X134186309Y-90225000D01*
X133945750Y-90225000D01*
X133787000Y-90383750D01*
X133533000Y-90383750D01*
X133374250Y-90225000D01*
X133133691Y-90225000D01*
X132900302Y-90321673D01*
X132721673Y-90500301D01*
X132625000Y-90733690D01*
X128497440Y-90733690D01*
X128497440Y-90590000D01*
X128453162Y-90354683D01*
X128439654Y-90333690D01*
X128975000Y-90333690D01*
X128975000Y-90574250D01*
X129133750Y-90733000D01*
X130283000Y-90733000D01*
X130283000Y-89983750D01*
X130537000Y-89983750D01*
X130537000Y-90733000D01*
X131686250Y-90733000D01*
X131845000Y-90574250D01*
X131845000Y-90333690D01*
X131748327Y-90100301D01*
X131569698Y-89921673D01*
X131336309Y-89825000D01*
X130695750Y-89825000D01*
X130537000Y-89983750D01*
X130283000Y-89983750D01*
X130124250Y-89825000D01*
X129483691Y-89825000D01*
X129250302Y-89921673D01*
X129071673Y-90100301D01*
X128975000Y-90333690D01*
X128439654Y-90333690D01*
X128314090Y-90138559D01*
X128101890Y-89993569D01*
X127850000Y-89942560D01*
X126150000Y-89942560D01*
X125914683Y-89986838D01*
X125698559Y-90125910D01*
X125553569Y-90338110D01*
X125502560Y-90590000D01*
X125502560Y-92290000D01*
X125546838Y-92525317D01*
X125685910Y-92741441D01*
X125898110Y-92886431D01*
X125965541Y-92900086D01*
X125920853Y-92929946D01*
X125598946Y-93411715D01*
X125485907Y-93980000D01*
X125598946Y-94548285D01*
X125920853Y-95030054D01*
X126250026Y-95250000D01*
X125920853Y-95469946D01*
X125598946Y-95951715D01*
X125485907Y-96520000D01*
X125598946Y-97088285D01*
X125920853Y-97570054D01*
X126237164Y-97781406D01*
X126233221Y-97801229D01*
X125920853Y-98009946D01*
X125598946Y-98491715D01*
X125485907Y-99060000D01*
X125598946Y-99628285D01*
X125846969Y-99999479D01*
X125262524Y-100583924D01*
X125222000Y-100644572D01*
X125222000Y-90095606D01*
X125655606Y-89662000D01*
X148664394Y-89662000D01*
X149098000Y-90095606D01*
M02*
